<?xml version="1.0" encoding="UTF-8"?>
<svg xmlns="http://www.w3.org/2000/svg" width="256" height="256" viewBox="0 0 256 256">
<path d="M0 0 C84.48 0 168.96 0 256 0 C256 14.52 256 29.04 256 44 C248.995 43.9536 241.99 43.9072 234.773 43.8594 C230.335 43.8389 225.896 43.8197 221.457 43.8047 C214.412 43.7808 207.367 43.7531 200.323 43.6982 C194.643 43.6548 188.963 43.6309 183.283 43.6205 C181.117 43.6131 178.95 43.5987 176.784 43.5771 C173.748 43.548 170.713 43.544 167.677 43.5459 C166.782 43.5315 165.888 43.5171 164.966 43.5023 C159.343 43.5394 156.33 44.3481 152 48 C148.893 52.3996 149.389 57.8498 150 63 C151.221 66.1897 152.909 68.3391 155.878 70.1373 C158.165 71.0673 159.743 71.2468 162.201 71.2405 C162.617 71.2419 162.617 71.2419 164.717 71.2488 C165.619 71.2416 166.521 71.2345 167.45 71.2271 C167.928 71.2272 167.928 71.2272 170.348 71.2279 C173.508 71.2265 176.668 71.211 179.828 71.1953 C182.02 71.1916 184.211 71.1887 186.403 71.1867 C191.58 71.1799 196.758 71.1641 201.936 71.144 C208.41 71.1195 214.885 71.1087 221.359 71.0977 C232.906 71.0762 244.453 71.041 256 71 C256 82.55 256 94.1 256 106 C253.063 105.979 250.125 105.958 247.099 105.937 C237.392 105.87 227.685 105.826 217.978 105.793 C212.093 105.772 206.208 105.744 200.323 105.698 C194.643 105.655 188.963 105.631 183.283 105.62 C181.117 105.613 178.95 105.599 176.784 105.577 C173.748 105.548 170.713 105.544 167.677 105.546 C167.23 105.539 167.23 105.539 164.966 105.502 C159.357 105.539 156.255 106.249 152 110 C149.525 113.32 149.704 116.881 149.709 120.876 C149.703 121.56 149.696 122.243 149.689 122.948 C149.67 125.202 149.666 127.456 149.664 129.711 C149.658 131.283 149.651 132.854 149.644 134.426 C149.632 137.72 149.628 141.013 149.629 144.307 C149.63 148.519 149.602 152.731 149.568 156.943 C149.546 160.189 149.542 163.435 149.543 166.682 C149.54 168.234 149.531 169.787 149.516 171.339 C149.496 173.515 149.502 175.689 149.514 177.865 C149.503 178.501 149.492 179.137 149.48 179.792 C149.55 184.782 150.902 187.26 154 191 C156.818 192.731 158.915 193.249 162.201 193.241 C162.617 193.242 162.617 193.242 164.717 193.249 C165.619 193.242 166.521 193.234 167.45 193.227 C167.928 193.227 167.928 193.227 170.348 193.228 C173.508 193.227 176.668 193.211 179.828 193.195 C182.02 193.192 184.211 193.189 186.403 193.187 C191.58 193.18 196.758 193.164 201.936 193.144 C209.445 193.116 216.954 193.105 224.464 193.092 C234.976 193.073 245.488 193.035 256 193 C256 213.79 256 234.58 256 256 C171.52 256 87.04 256 0 256 C0 171.52 0 87.04 0 0 Z M18.1503 49.3877 C16.8289 52.3885 16.6136 54.5239 16.5959 57.7966 C16.5833 58.9381 16.5706 60.0796 16.5575 61.2556 C16.5596 62.492 16.5626 63.7284 16.5664 64.9648 C16.5618 66.2437 16.5565 67.5226 16.5505 68.8014 C16.5416 71.477 16.544 74.1523 16.554 76.8279 C16.5654 80.2455 16.5452 83.662 16.516 87.0795 C16.4976 89.7193 16.498 92.359 16.5037 94.9989 C16.5038 96.2583 16.4978 97.5177 16.4854 98.7771 C16.413 107.31 16.907 111.615 22.75 117.875 C23.1625 118.246 23.575 118.618 24 119 C23.2162 119.578 22.4325 120.155 21.625 120.75 C18.6148 123.33 17.2251 125.191 16.7326 129.149 C16.725 129.921 16.7173 130.694 16.7095 131.49 C16.6967 132.371 16.684 133.252 16.6708 134.16 C16.6686 135.105 16.6664 136.05 16.6641 137.023 C16.6574 138.002 16.6507 138.981 16.6439 139.99 C16.6338 142.059 16.6291 144.129 16.6294 146.198 C16.625 149.357 16.5887 152.514 16.5508 155.672 C16.5449 157.685 16.5409 159.698 16.5391 161.711 C16.5247 162.652 16.5103 163.593 16.4955 164.562 C16.5358 170.369 17.2027 173.543 21 178 C24.6721 181.147 28.0333 181.527 32.7188 181.348 C36.349 180.794 39.3489 179.569 42 177 C45.3549 171.72 45.4534 167.159 45.4336 161 C45.4388 160.046 45.4441 159.092 45.4495 158.109 C45.4559 156.099 45.4546 154.089 45.446 152.078 C45.4375 149.01 45.4663 145.943 45.498 142.875 C45.4997 140.917 45.4991 138.958 45.4961 137 C45.5073 136.087 45.5186 135.175 45.5301 134.234 C45.4556 127.389 43.9399 124.15 39.25 119.125 C39.0438 118.939 39.0438 118.939 38 118 C39.237 116.828 40.474 115.656 41.7109 114.484 C45.486 110.137 45.2673 106.014 45.1953 100.516 C45.1939 100.108 45.1939 100.108 45.1867 98.0441 C45.1756 95.4459 45.1505 92.8481 45.125 90.25 C45.115 88.4857 45.1058 86.7214 45.0977 84.957 C45.0756 80.6379 45.0411 76.319 45 72 C45.4746 72.0044 45.4746 72.0044 47.8761 72.0269 C56.836 72.1081 65.7958 72.168 74.756 72.2072 C79.3621 72.2281 83.968 72.2564 88.574 72.3018 C93.022 72.3453 97.4697 72.3692 101.918 72.3795 C103.612 72.3869 105.306 72.4013 107 72.4229 C109.379 72.4521 111.757 72.4559 114.137 72.4541 C114.832 72.4685 115.527 72.4829 116.243 72.4977 C121.29 72.4555 124.985 71.1016 129 68 C132.599 63.1234 132.868 57.9323 132 52 C130.273 47.553 127.265 44.9794 123 43 C119.874 42.5619 116.776 42.5798 113.623 42.5959 C112.686 42.5891 111.749 42.5822 110.783 42.5751 C107.69 42.5569 104.597 42.5607 101.504 42.5664 C99.3507 42.5618 97.1974 42.5565 95.0442 42.5505 C90.5326 42.5416 86.0211 42.544 81.5095 42.554 C75.7313 42.5654 69.9536 42.5452 64.1754 42.516 C59.729 42.4977 55.2827 42.498 50.8362 42.5037 C48.706 42.5038 46.5758 42.4978 44.4456 42.4854 C41.4654 42.4705 38.4863 42.4811 35.5061 42.4983 C34.6285 42.4886 33.7509 42.479 32.8467 42.469 C26.1273 42.5499 22.404 43.8969 18.1503 49.3877 Z M104.371 124.012 C102.374 128.366 102.552 132.384 102.566 137.121 C102.561 138.099 102.556 139.076 102.551 140.083 C102.544 142.147 102.545 144.21 102.554 146.274 C102.562 149.423 102.534 152.571 102.502 155.721 C102.5 157.729 102.501 159.738 102.504 161.746 C102.493 162.684 102.481 163.621 102.47 164.588 C102.531 170.379 103.222 173.549 107 178 C110.822 181.372 114.587 181.516 119.496 181.348 C123.245 180.827 126.292 179.687 129 177 C132.352 171.717 132.453 167.16 132.434 161 C132.439 160.046 132.444 159.092 132.449 158.109 C132.456 156.099 132.455 154.089 132.446 152.078 C132.438 149.01 132.466 145.943 132.498 142.875 C132.5 140.917 132.499 138.958 132.496 137 C132.507 136.087 132.519 135.175 132.53 134.234 C132.468 128.506 131.715 125.413 128 121 C124.039 117.399 119.785 117.497 114.66 117.648 C109.87 118.282 107.42 120.247 104.371 124.012 Z " fill="#0A0C18" transform="translate(0,0)" stroke="#0A0C18" stroke-width="2"/>
<path d="M0 0 C0.94522 -0.0020444 1.89044 -0.0040887 2.8643 -0.0061951 C5.98167 -0.009198 9.09851 0.0092555 12.2158 0.0283203 C14.381 0.0313781 16.5463 0.0332541 18.7115 0.0339966 C23.2441 0.0385961 27.7765 0.0530123 32.3091 0.0751953 C38.1325 0.103545 43.9557 0.114414 49.7792 0.118877 C54.2468 0.123023 58.7145 0.132833 63.1821 0.144753 C65.3304 0.150467 67.4787 0.155222 69.627 0.15902 C72.6199 0.165856 75.6126 0.179475 78.6055 0.195312 C79.0533 0.195871 79.0533 0.195871 81.3193 0.1987 C82.1296 0.20441 82.94 0.21012 83.7748 0.216003 C84.1288 0.217491 84.1288 0.217491 85.92 0.225018 C87.5439 0.356445 87.5439 0.356445 88.5439 1.35645 C88.6497 4.05934 88.6907 6.73682 88.6892 9.44043 C88.6926 10.2875 88.6959 11.1346 88.6994 12.0074 C88.7089 14.8217 88.7108 17.6359 88.7119 20.4502 C88.7151 22.3969 88.7185 24.3437 88.722 26.2904 C88.728 30.3761 88.7298 34.4617 88.7292 38.5474 C88.7291 43.7969 88.7428 49.0464 88.76 54.296 C88.7711 58.3175 88.7732 62.3391 88.7726 66.3607 C88.7738 68.2969 88.7783 70.2331 88.786 72.1692 C88.7957 74.8704 88.7929 77.5713 88.7869 80.2725 C88.7925 81.0808 88.7981 81.8892 88.8039 82.722 C88.7931 84.6021 88.6797 86.4812 88.5439 88.3564 C86.3224 89.4672 85.1585 89.4886 82.6993 89.5036 C81.8974 89.5108 81.0956 89.5179 80.2695 89.5253 C79.3884 89.528 78.5074 89.5307 77.5996 89.5334 C76.6726 89.54 75.7456 89.5466 74.7905 89.5534 C71.7135 89.5731 68.6366 89.5848 65.5596 89.5947 C64.5098 89.5988 63.46 89.6029 62.3783 89.6071 C56.8212 89.6279 51.2642 89.6422 45.707 89.6516 C39.9657 89.6627 34.2248 89.6971 28.4836 89.7368 C24.0707 89.7629 19.6578 89.7713 15.2448 89.7749 C13.1285 89.7798 11.0122 89.7914 8.896 89.8099 C5.93231 89.8343 2.96962 89.8334 0.0058594 89.8264 C-0.867098 89.8392 -1.74005 89.852 -2.63947 89.8652 C-8.20673 89.8177 -11.2314 89.0718 -15.4561 85.3564 C-18.524 81.5199 -18.8938 78.1305 -18.8601 73.3665 C-18.867 72.6829 -18.8738 71.9993 -18.8809 71.295 C-18.8991 69.0457 -18.8953 66.7972 -18.8896 64.5479 C-18.8942 62.9775 -18.8995 61.4072 -18.9055 59.8369 C-18.9145 56.5493 -18.912 53.262 -18.9021 49.9744 C-18.8906 45.7699 -18.9108 41.5663 -18.94 37.3619 C-18.9584 34.1199 -18.9581 30.878 -18.9524 27.6359 C-18.9522 26.0863 -18.9583 24.5365 -18.9707 22.9869 C-18.9856 20.816 -18.9749 18.6467 -18.9578 16.4758 C-18.9674 15.8414 -18.9771 15.2069 -18.9871 14.5532 C-18.9087 9.78361 -17.5971 6.80782 -14.4561 3.35645 C-10.0489 -0.425519 -5.52548 -0.0573719 0 0 Z M10.5439 28.3564 C10.5439 39.2464 10.5439 50.1364 10.5439 61.3564 C29.6839 61.3564 48.8239 61.3564 68.5439 61.3564 C68.5439 50.4664 68.5439 39.5764 68.5439 28.3564 C49.4039 28.3564 30.2639 28.3564 10.5439 28.3564 Z " fill="#7A9947" transform="translate(167.456,104.644)" stroke="#7A9947" stroke-width="2"/>
<path d="M0 0 C0.468594 -0.0034316 0.468594 -0.0034316 2.83997 -0.0207977 C5.93326 -0.0390763 9.02605 -0.0352266 12.1194 -0.029541 C14.2726 -0.0341023 16.4259 -0.0394077 18.5791 -0.0454254 C23.0907 -0.0543586 27.6022 -0.0519309 32.1138 -0.0419922 C37.892 -0.0305028 43.6697 -0.0507129 49.4479 -0.0799093 C53.8943 -0.0982657 58.3406 -0.0979799 62.7871 -0.0922718 C64.9173 -0.0921185 67.0475 -0.0981688 69.1777 -0.110563 C72.1579 -0.12546 75.137 -0.114805 78.1172 -0.0976562 C78.9948 -0.107324 79.8724 -0.116992 80.7766 -0.126953 C86.3562 -0.0598082 89.3101 0.811607 93.6233 4.40405 C96.9953 8.22564 97.1392 11.9907 96.9709 16.9001 C96.4505 20.6487 95.3102 23.6956 92.6233 26.4041 C87.8786 29.2629 84.354 29.8293 78.8738 29.7446 C78.4978 29.7448 78.4978 29.7448 76.5953 29.746 C74.1278 29.7439 71.661 29.7206 69.1936 29.697 C67.4758 29.6914 65.758 29.6872 64.0403 29.6842 C59.5324 29.6727 55.0248 29.6433 50.517 29.61 C45.9119 29.5793 41.3067 29.5656 36.7014 29.5505 C27.6752 29.5184 18.6493 29.4673 9.62329 29.4041 C9.64424 30.4882 9.66519 31.5724 9.68677 32.6895 C9.7595 36.7354 9.80521 40.7812 9.84302 44.8276 C9.86306 46.5745 9.8903 48.3213 9.92505 50.0679 C9.97391 52.5877 9.99634 55.1065 10.0139 57.6267 C10.0346 58.3999 10.0552 59.1731 10.0765 59.9697 C10.0791 66.3474 8.13195 70.6266 3.87329 75.3416 C3.46079 75.6922 3.04829 76.0428 2.62329 76.4041 C3.40704 76.9816 4.19079 77.5591 4.99829 78.1541 C7.98669 80.7155 9.39131 82.5786 9.89072 86.5084 C9.89834 87.26 9.90596 88.0117 9.91382 88.7861 C9.9202 89.2151 9.9202 89.2151 9.95248 91.3862 C9.95471 92.306 9.95694 93.2259 9.95923 94.1736 C9.96589 95.1279 9.97254 96.0823 9.9794 97.0656 C9.98952 99.0838 9.99422 101.102 9.9939 103.12 C9.99826 106.195 10.0346 109.269 10.0725 112.344 C10.0784 114.308 10.0823 116.272 10.0842 118.236 C10.0986 119.15 10.113 120.064 10.1278 121.005 C10.0875 126.682 9.3005 130.934 5.62329 135.404 C0.969572 138.759 -3.80845 139.302 -9.37671 138.404 C-13.7965 136.625 -16.4232 133.686 -18.3767 129.404 C-18.8259 126.03 -18.8209 122.683 -18.8103 119.283 C-18.8155 118.305 -18.8208 117.328 -18.8262 116.321 C-18.8326 114.257 -18.8313 112.194 -18.8228 110.13 C-18.8142 106.981 -18.843 103.833 -18.8748 100.683 C-18.8764 98.6749 -18.8758 96.6664 -18.8728 94.658 C-18.884 93.7203 -18.8953 92.7826 -18.9068 91.8165 C-18.8332 84.8771 -17.3801 81.622 -12.6267 76.5291 C-12.2142 76.1578 -11.8017 75.7866 -11.3767 75.4041 C-12.1605 74.8266 -12.9442 74.2491 -13.7517 73.6541 C-17.0055 70.8651 -18.211 69.0415 -18.6441 64.7615 C-18.6518 63.7581 -18.6594 62.7547 -18.6672 61.7209 C-18.68 60.5794 -18.6928 59.4379 -18.7059 58.2617 C-18.709 57.0201 -18.7112 55.7785 -18.7126 54.5369 C-18.7191 53.2566 -18.7258 51.9763 -18.7328 50.696 C-18.7448 48.0145 -18.7485 45.3331 -18.7473 42.6516 C-18.7471 39.2262 -18.7744 35.8016 -18.8089 32.3764 C-18.8312 29.7323 -18.8352 27.0883 -18.8341 24.4441 C-18.8364 23.1819 -18.8452 21.9197 -18.8608 20.6575 C-18.9997 8.19506 -18.9997 8.19506 -14.3767 3.40405 C-9.78231 -0.220794 -5.60002 -0.0286594 0 0 Z " fill="#1C9147" transform="translate(35.3767,42.5959)" stroke="#1C9147" stroke-width="2"/>
<path d="M0 0 C0.94522 -0.0020444 1.89044 -0.0040887 2.8643 -0.0061951 C5.98167 -0.009198 9.09851 0.0092555 12.2158 0.0283203 C14.381 0.0313781 16.5463 0.0332541 18.7115 0.0339966 C23.2441 0.0385961 27.7765 0.0530123 32.3091 0.0751953 C38.1325 0.103545 43.9557 0.114414 49.7792 0.118877 C54.2468 0.123023 58.7145 0.132833 63.1821 0.144753 C65.3304 0.150467 67.4787 0.155222 69.627 0.15902 C72.6199 0.165856 75.6126 0.179475 78.6055 0.195312 C79.0533 0.195871 79.0533 0.195871 81.3193 0.1987 C82.1296 0.20441 82.94 0.21012 83.7748 0.216003 C84.1288 0.217491 84.1288 0.217491 85.92 0.225018 C87.5439 0.356445 87.5439 0.356445 88.5439 1.35645 C88.7609 5.20474 88.7297 9.05881 88.7292 12.9126 C88.7314 14.8485 88.7496 16.7839 88.7686 18.7197 C88.7715 19.9424 88.7735 21.165 88.7744 22.3877 C88.7785 23.5072 88.7826 24.6268 88.7869 25.7803 C88.7067 26.6304 88.6265 27.4805 88.5439 28.3564 C86.3224 29.4672 85.1585 29.4886 82.6993 29.5036 C82.2984 29.5072 82.2984 29.5072 80.2695 29.5253 C79.8289 29.5266 79.8289 29.5266 77.5996 29.5334 C76.6726 29.54 75.7456 29.5466 74.7905 29.5534 C71.7135 29.5731 68.6366 29.5848 65.5596 29.5947 C64.5098 29.5988 63.46 29.6029 62.3783 29.6071 C56.8212 29.6279 51.2642 29.6422 45.707 29.6516 C39.9657 29.6627 34.2248 29.6971 28.4836 29.7368 C24.0707 29.7629 19.6578 29.7713 15.2448 29.7749 C13.1285 29.7798 11.0122 29.7914 8.896 29.8099 C5.93231 29.8343 2.96962 29.8334 0.0058594 29.8264 C-0.867098 29.8392 -1.74005 29.852 -2.63947 29.8652 C-8.2148 29.8176 -11.1438 28.9409 -15.4561 25.3564 C-19.0566 21.3958 -18.9594 17.1415 -18.8076 12.0166 C-18.1731 7.21569 -16.2047 4.7478 -12.4025 1.72247 C-8.23231 -0.210903 -4.54348 -0.0471757 0 0 Z " fill="#7A9947" transform="translate(167.456,42.6436)" stroke="#7A9947" stroke-width="2"/>
<path d="M0 0 C19.14 0 38.28 0 58 0 C58 10.89 58 21.78 58 33 C38.86 33 19.72 33 0 33 C0 22.11 0 11.22 0 0 Z " fill="#0A0C18" transform="translate(178,133)" stroke="#0A0C18" stroke-width="2"/>
<path d="M0 0 C3.45957 2.13297 5.38422 4.6432 7.05859 8.27344 C7.50682 11.5629 7.50283 14.8246 7.49219 18.1406 C7.49743 19.0936 7.50267 20.0465 7.50807 21.0284 C7.51448 23.0405 7.51317 25.0528 7.50464 27.0649 C7.49614 30.1312 7.52488 33.1956 7.55664 36.2617 C7.55825 38.2214 7.55767 40.181 7.55469 42.1406 C7.56592 43.0513 7.57716 43.9619 7.58873 44.9001 C7.5272 50.5692 6.7105 54.8009 3.05859 59.2734 C-1.81799 62.8728 -7.00909 63.1416 -12.9414 62.2734 C-17.3866 60.5473 -19.9855 57.5488 -21.9414 53.2734 C-22.391 49.8996 -22.3856 46.5523 -22.375 43.1523 C-22.3802 42.1748 -22.3855 41.1973 -22.3909 40.1902 C-22.3973 38.1267 -22.396 36.0632 -22.3875 33.9998 C-22.3789 30.8501 -22.4077 27.7022 -22.4395 24.5527 C-22.4411 22.5443 -22.4405 20.5358 -22.4375 18.5273 C-22.4487 17.5897 -22.46 16.652 -22.4715 15.6859 C-22.4101 9.89259 -21.7153 6.72803 -17.9414 2.27344 C-13.2926 -1.95278 -5.76242 -2.15656 0 0 Z " fill="#1C9147" transform="translate(124.941,118.727)" stroke="#1C9147" stroke-width="2"/>
</svg>
