<?xml version="1.0" encoding="UTF-8"?>
<svg xmlns="http://www.w3.org/2000/svg" width="256" height="256" viewBox="0 0 256 256">
<path d="M0 0 C2.29293 -0.000675524 4.58586 -0.00164761 6.87878 -0.00289917 C11.6593 -0.00470454 16.4397 -0.00235789 21.2202 0.00244141 C26.7007 0.00788084 32.1811 0.00611702 37.6615 0.000615001 C42.9934 -0.00451798 48.3253 -0.00391358 53.6571 -0.00100327 C55.8991 -0.000342753 58.1411 -0.00113128 60.383 -0.00348282 C80.436 -0.0199071 80.436 -0.0199071 90.248 0.570801 C90.8818 0.608475 91.5155 0.646149 92.1685 0.684965 C100.156 1.24536 105.468 3.65547 111.336 9.10938 C118.027 17.0959 117.18 29.3472 117.177 39.1357 C117.18 40.3406 117.183 41.5454 117.187 42.7503 C117.195 46.0067 117.198 49.2631 117.199 52.5195 C117.199 54.5594 117.201 56.5993 117.204 58.6392 C117.213 65.7712 117.217 72.9032 117.217 80.0352 C117.216 86.6579 117.226 93.2805 117.242 99.9032 C117.255 105.61 117.261 111.316 117.26 117.022 C117.26 120.421 117.263 123.82 117.273 127.219 C117.283 130.421 117.283 133.622 117.276 136.823 C117.274 138.54 117.282 140.256 117.291 141.973 C117.244 153.726 116.247 163.744 107.781 172.445 C93.6018 181.146 73.1343 178.282 57.1602 178.266 C54.8658 178.266 52.5714 178.267 50.2771 178.269 C45.4906 178.27 40.7042 178.268 35.9177 178.263 C30.4299 178.258 24.9421 178.26 19.4543 178.265 C14.1176 178.27 8.78099 178.27 3.44432 178.267 C1.19955 178.266 -1.04521 178.267 -3.28998 178.269 C-23.3767 178.286 -23.3767 178.286 -33.1877 177.695 C-33.8213 177.657 -34.455 177.619 -35.1078 177.581 C-43.0941 177.02 -48.406 174.61 -54.2734 169.156 C-60.9519 161.185 -60.1201 148.951 -60.1299 139.177 C-60.1345 137.978 -60.1395 136.778 -60.1449 135.578 C-60.158 132.333 -60.1645 129.089 -60.1689 125.845 C-60.1719 123.811 -60.176 121.777 -60.1804 119.743 C-60.1941 113.359 -60.2038 106.976 -60.2076 100.592 C-60.2121 93.2609 -60.2296 85.93 -60.2586 78.599 C-60.2804 72.9078 -60.2904 67.2167 -60.2917 61.5254 C-60.2927 58.138 -60.2985 54.7508 -60.3165 51.3634 C-60.4882 17.1055 -60.4882 17.1055 -53.6562 8.44531 C-47.7096 2.57394 -41.3793 1.07407 -33.2168 0.578613 C-32.8706 0.557558 -32.8706 0.557558 -31.1187 0.451006 C-20.7553 -0.110737 -10.3751 -0.0108821 0 0 Z M-25.5898 29.5039 C-34.9116 40.5157 -34.2834 55.3213 -34.2695 68.9023 C-34.2734 70.5122 -34.2778 72.122 -34.2825 73.7319 C-34.2899 77.0912 -34.2897 80.4505 -34.2844 83.8098 C-34.2786 88.0759 -34.2956 92.3416 -34.3188 96.6077 C-34.3336 99.929 -34.3344 103.25 -34.3313 106.571 C-34.3318 108.142 -34.3369 109.713 -34.3471 111.284 C-34.4211 124.293 -34.4873 139.103 -24.9688 149.133 C-18.1662 154.572 -11.5883 156.043 -2.96875 155.133 C4.88721 152.853 9.47835 148.88 13.7188 142.07 C19.0108 131.782 18.3437 119.761 18.332 108.484 C18.3359 106.898 18.3403 105.312 18.345 103.726 C18.3524 100.42 18.3522 97.1139 18.3469 93.8076 C18.3411 89.6099 18.3581 85.4126 18.3813 81.215 C18.3961 77.9443 18.3969 74.6738 18.3938 71.4031 C18.3943 69.8573 18.3994 68.3114 18.4096 66.7656 C18.4845 53.8219 18.4953 39.105 9.03125 29.1328 C-1.18221 20.966 -15.6168 20.4004 -25.5898 29.5039 Z M47.4102 83.5039 C37.5392 95.1645 38.1483 111.755 39.0312 126.133 C39.8646 134.718 41.9497 142.725 48.0312 149.133 C54.8338 154.572 61.4117 156.043 70.0312 155.133 C77.8872 152.853 82.4784 148.88 86.7188 142.07 C93.6599 128.734 92.6455 109.427 89.0664 95.1602 C86.5334 87.7522 82.7274 82.9209 75.9609 79.0078 C66.5781 74.7532 55.0045 76.5718 47.4102 83.5039 Z " fill="#B55A1B" transform="translate(106.969,35.8672)" stroke="#B55A1B" stroke-width="2"/>
<path d="M0 0 C1.82858 -0.000718141 3.65716 -0.00286664 5.48574 -0.00549722 C11.8996 -0.0147076 18.3135 -0.0188376 24.7274 -0.0180457 C30.6503 -0.0174463 36.5731 -0.0279824 42.4959 -0.0437893 C47.6276 -0.0569833 52.7593 -0.0622246 57.8911 -0.0615903 C60.9353 -0.0613387 63.9795 -0.0639959 67.0237 -0.0747683 C77.9343 -0.106634 88.8034 -0.13076 99.6649 1.01369 C100.368 1.08551 101.071 1.15733 101.795 1.23132 C110.712 2.32733 118.974 6.38493 124.996 13.1555 C136.105 28.4529 133.764 49.8286 133.725 67.7549 C133.72 70.9072 133.725 74.0596 133.728 77.2119 C133.732 82.5001 133.727 87.7883 133.717 93.0764 C133.707 99.1414 133.71 105.206 133.721 111.271 C133.73 116.531 133.731 121.791 133.726 127.051 C133.723 130.17 133.723 133.288 133.729 136.407 C133.77 158.545 133.77 158.545 132.6 168.909 C132.527 169.564 132.455 170.219 132.38 170.894 C131.086 180.641 126.467 188.433 118.777 194.55 C103.942 204.889 82.6549 202.474 65.4063 202.436 C62.3439 202.431 59.2814 202.436 56.219 202.439 C51.0822 202.442 45.9455 202.438 40.8087 202.428 C34.9226 202.417 29.0367 202.421 23.1507 202.432 C18.0401 202.441 12.9295 202.442 7.81891 202.437 C4.79151 202.434 1.76417 202.433 -1.26323 202.44 C-12.1194 202.456 -22.9337 202.456 -33.7406 201.319 C-34.4442 201.247 -35.1477 201.175 -35.8726 201.101 C-44.7946 200.009 -53.0576 195.953 -59.0824 189.179 C-70.1915 173.882 -67.8506 152.506 -67.812 134.58 C-67.8068 131.427 -67.8116 128.275 -67.8148 125.123 C-67.8184 119.834 -67.8137 114.546 -67.8041 109.258 C-67.7932 103.193 -67.7967 97.1282 -67.8077 91.0632 C-67.8169 85.8032 -67.8181 80.5432 -67.8129 75.2832 C-67.8098 72.1647 -67.8092 69.0463 -67.8159 65.9278 C-67.8953 23.1947 -67.8953 23.1947 -56.3832 10.9524 C-41.823 -3.17501 -18.7914 0.00415798 0 0 Z M-28.725 12.6052 C-29.0395 12.6241 -29.0395 12.6241 -30.6311 12.7194 C-38.7002 13.2873 -44.5706 15.0704 -50.1058 21.1438 C-56.2038 29.7274 -55.6944 41.0756 -55.7045 51.1226 C-55.7091 52.3226 -55.7141 53.5225 -55.7195 54.7225 C-55.7326 57.9667 -55.7391 61.2109 -55.7435 64.4552 C-55.7465 66.4891 -55.7506 68.5229 -55.755 70.5568 C-55.7687 76.9406 -55.7784 83.3243 -55.7822 89.7081 C-55.7867 97.0391 -55.8042 104.37 -55.8332 111.701 C-55.855 117.392 -55.8649 123.083 -55.8663 128.775 C-55.8673 132.162 -55.8731 135.549 -55.8911 138.937 C-56.0628 173.195 -56.0628 173.195 -49.2308 181.855 C-43.2849 187.725 -36.9552 189.226 -28.7936 189.721 C-28.1013 189.764 -27.409 189.806 -26.6957 189.849 C-16.3198 190.411 -5.92697 190.311 4.46057 190.3 C6.75589 190.301 9.05121 190.302 11.3465 190.303 C16.1312 190.305 20.9159 190.302 25.7006 190.298 C31.189 190.292 36.6774 190.294 42.1658 190.299 C47.503 190.305 52.8402 190.304 58.1774 190.301 C60.423 190.3 62.6686 190.301 64.9142 190.304 C106.051 190.337 106.051 190.337 114.953 182.034 C121.988 173.3 121.607 161.81 121.618 151.212 C121.622 150.012 121.627 148.812 121.633 147.612 C121.646 144.368 121.652 141.124 121.657 137.879 C121.66 135.845 121.664 133.812 121.668 131.778 C121.682 125.394 121.692 119.01 121.696 112.626 C121.7 105.295 121.718 97.9645 121.747 90.6334 C121.768 84.9423 121.778 79.2511 121.78 73.5599 C121.781 70.1725 121.786 66.7852 121.804 63.3978 C121.976 29.1399 121.976 29.1399 115.144 20.4798 C109.198 14.6084 102.867 13.1085 94.7047 12.6131 C94.0123 12.5709 93.32 12.5288 92.6066 12.4855 C82.2432 11.9237 71.863 12.0236 61.4879 12.0344 C59.195 12.0338 56.9021 12.0328 54.6091 12.0315 C49.8286 12.0297 45.0482 12.0321 40.2677 12.0369 C34.7872 12.0423 29.3068 12.0406 23.8264 12.0351 C18.4945 12.0299 13.1627 12.0305 7.83079 12.0334 C5.58882 12.0341 3.34684 12.0333 1.10487 12.031 C-18.949 12.0145 -18.949 12.0145 -28.725 12.6052 Z " fill="#A0511A" transform="translate(102.543,23.8327)" stroke="#A0511A" stroke-width="2"/>
<path d="M0 0 C1.29263 -0.00271833 2.58526 -0.00628394 3.87788 -0.0106201 C7.35105 -0.0196464 10.8241 -0.0162407 14.2973 -0.00986195 C17.9551 -0.00475085 21.613 -0.00950745 25.2709 -0.0126343 C31.4103 -0.0162592 37.5496 -0.0115138 43.689 -0.00195312 C50.7577 0.00892858 57.8263 0.00540195 64.895 -0.00560594 C70.9956 -0.0147211 77.0961 -0.0159435 83.1967 -0.0107286 C86.8265 -0.00763203 90.4563 -0.00713513 94.0861 -0.0138016 C97.5008 -0.0196364 100.915 -0.0154677 104.33 -0.00401306 C105.573 -0.00139892 106.816 -0.00207495 108.059 -0.00653839 C123.195 -0.0558184 137.569 1.7375 149.096 12.5049 C159.706 24.7203 160.767 38.6623 160.78 54.1221 C160.785 55.4076 160.79 56.6932 160.795 57.9787 C160.808 61.4523 160.815 64.926 160.819 68.3996 C160.822 70.5781 160.826 72.7565 160.831 74.935 C160.844 81.7747 160.854 88.6144 160.858 95.4542 C160.863 103.305 160.88 111.155 160.909 119.006 C160.931 125.103 160.941 131.2 160.942 137.297 C160.943 140.925 160.949 144.553 160.967 148.181 C161.152 187.649 161.152 187.649 151.619 200.259 C151.002 201.098 150.384 201.937 149.748 202.802 C142.19 211.525 130.794 215.198 119.619 216.259 C115.349 216.409 111.079 216.406 106.806 216.404 C105.514 216.407 104.222 216.41 102.93 216.414 C99.4362 216.423 95.9421 216.425 92.448 216.426 C90.2593 216.427 88.0707 216.429 85.8821 216.432 C78.2302 216.441 70.5784 216.445 62.9265 216.444 C55.821 216.443 48.7156 216.454 41.6101 216.47 C35.4883 216.483 29.3666 216.488 23.2449 216.488 C19.5982 216.487 15.9516 216.49 12.305 216.501 C8.86988 216.511 5.4349 216.511 1.99977 216.503 C0.748622 216.502 -0.502537 216.505 -1.75367 216.511 C-16.9151 216.58 -31.3099 214.8 -42.8574 204.013 C-53.511 191.747 -54.5333 177.758 -54.5261 162.24 C-54.5291 160.938 -54.5325 159.636 -54.5363 158.335 C-54.5451 154.818 -54.5475 151.301 -54.5481 147.784 C-54.5488 145.581 -54.551 143.378 -54.5536 141.175 C-54.5629 133.471 -54.567 125.767 -54.5662 118.063 C-54.5656 110.911 -54.5761 103.758 -54.5919 96.6055 C-54.605 90.4413 -54.6103 84.2771 -54.6097 78.1129 C-54.6095 74.4417 -54.6122 70.7705 -54.6229 67.0993 C-54.6327 63.642 -54.6326 60.1848 -54.6254 56.7275 C-54.6243 55.4683 -54.6266 54.2091 -54.6327 52.9499 C-54.7033 37.3837 -52.7483 22.8514 -41.6113 11.0752 C-38.8036 8.78873 -35.8977 7.05645 -32.6934 5.38379 C-32.1539 5.09721 -31.6144 4.81064 -31.0586 4.51538 C-21.4536 -0.0969484 -10.4342 -0.0374651 0 0 Z M-38.3809 20.2588 C-41.531 23.7851 -43.1959 26.8006 -44.5684 31.3213 C-44.8919 32.3435 -45.2155 33.3657 -45.5488 34.4189 C-47.7788 43.3183 -47.5302 52.8838 -47.5261 61.9998 C-47.5295 63.1056 -47.5328 64.2115 -47.5363 65.3508 C-47.545 68.3471 -47.5475 71.3432 -47.5481 74.3395 C-47.5488 76.2225 -47.551 78.1055 -47.5536 79.9885 C-47.5628 86.5892 -47.567 93.19 -47.5662 99.7908 C-47.5656 105.893 -47.5761 111.994 -47.5919 118.096 C-47.6051 123.377 -47.6103 128.658 -47.6097 133.94 C-47.6095 137.075 -47.6121 140.21 -47.6229 143.345 C-47.6939 165.683 -47.6939 165.683 -46.5344 176.008 C-46.4985 176.335 -46.4985 176.335 -46.3168 177.989 C-45.161 186.702 -40.9959 194.934 -34.3887 200.798 C-27.8782 205.535 -21.4936 207.534 -13.6094 208.379 C-12.8362 208.462 -12.0631 208.546 -11.2665 208.632 C-0.646578 209.656 10.0106 209.551 20.6695 209.527 C23.7319 209.522 26.7944 209.527 29.8568 209.53 C34.9936 209.534 40.1303 209.529 45.2671 209.52 C51.1532 209.509 57.0391 209.512 62.9251 209.523 C68.0357 209.532 73.1463 209.533 78.2569 209.528 C81.2843 209.525 84.3116 209.525 87.339 209.531 C98.1974 209.548 109.012 209.547 119.82 208.402 C120.524 208.33 121.228 208.257 121.954 208.182 C131.872 206.962 139.744 202.437 146.002 194.583 C156.288 179.799 153.925 158.861 153.888 141.671 C153.883 138.519 153.887 135.366 153.891 132.214 C153.894 126.926 153.889 121.638 153.88 116.35 C153.869 110.285 153.873 104.22 153.884 98.1548 C153.893 92.8947 153.894 87.6348 153.889 82.3747 C153.886 79.2562 153.885 76.1378 153.892 73.0193 C153.933 50.8833 153.933 50.8833 152.771 40.5205 C152.699 39.8663 152.627 39.212 152.553 38.5379 C151.401 29.8184 147.243 21.5911 140.627 15.7197 C134.116 10.9825 127.732 8.98387 119.848 8.13867 C119.075 8.0553 118.301 7.97192 117.505 7.88602 C106.885 6.8613 96.2276 6.96642 85.5688 6.99014 C82.5064 6.99531 79.4439 6.99048 76.3815 6.98737 C71.2447 6.98376 66.108 6.98844 60.9712 6.99805 C55.0851 7.00893 49.1992 7.0054 43.3131 6.99439 C38.2025 6.98523 33.092 6.98408 27.9814 6.98927 C24.954 6.99234 21.9266 6.99294 18.8992 6.9862 C-25.4289 6.91854 -25.4289 6.91854 -38.3809 20.2588 Z " fill="#693510" transform="translate(82.3809,16.7412)" stroke="#693510" stroke-width="2"/>
<path d="M0 0 C5.87497 5.21569 9.4162 13.148 10.1908 20.9123 C10.2718 22.9929 10.2931 25.0653 10.2905 27.1475 C10.2972 27.9306 10.304 28.7138 10.3109 29.5206 C10.3298 32.0919 10.3338 34.663 10.3359 37.2344 C10.3424 39.0365 10.3491 40.8386 10.3561 42.6407 C10.3681 46.4132 10.3718 50.1855 10.3706 53.958 C10.3704 58.7672 10.3977 63.5758 10.4321 68.3848 C10.4545 72.1066 10.4584 75.8282 10.4574 79.55 C10.4597 81.3216 10.4685 83.0933 10.4841 84.8649 C10.5799 96.9017 10.148 107.623 2.42188 117.566 C-2.04063 122.066 -7.43315 123.929 -13.625 124.312 C-19.3858 124.216 -25.2087 122.366 -29.6406 118.609 C-36.1097 111.205 -38.3073 102.405 -38.2747 92.8367 C-38.2798 92.0519 -38.2849 91.2672 -38.2901 90.4586 C-38.304 87.8825 -38.3031 85.3066 -38.3008 82.7305 C-38.3047 80.926 -38.309 79.1215 -38.3138 77.317 C-38.3212 73.5403 -38.3209 69.7637 -38.3157 65.9871 C-38.3099 61.1689 -38.3268 56.3511 -38.35 51.533 C-38.3648 47.8071 -38.3656 44.0811 -38.3625 40.3551 C-38.363 38.5799 -38.3682 36.8046 -38.3783 35.0294 C-38.4424 22.2038 -38.3774 10.8315 -29 1 C-20.6054 -6.15098 -9.06828 -5.81807 0 0 Z " fill="#B55A1B" transform="translate(113,65)" stroke="#B55A1B" stroke-width="2"/>
<path d="M0 0 C6.24628 5.54533 9.61275 13.7989 10.2244 22.0134 C10.3213 24.9743 10.3714 27.9248 10.3706 30.8867 C10.375 32.7327 10.4113 34.5763 10.4492 36.4219 C10.543 46.3271 8.63638 55.5681 2.42188 63.5664 C-2.04063 68.0657 -7.43315 69.9294 -13.625 70.3125 C-19.3858 70.2156 -25.2087 68.3659 -29.6406 64.6094 C-37.2245 55.929 -38.3548 46.098 -38.3157 35.0583 C-38.3125 33.2017 -38.336 31.3467 -38.3613 29.4902 C-38.4209 18.5378 -36.8026 9.18049 -29 1 C-20.6054 -6.15098 -9.06828 -5.81807 0 0 Z " fill="#B55A1B" transform="translate(186,119)" stroke="#B55A1B" stroke-width="2"/>
<path d="M0 0 C5.67123 4.06943 9.05948 11.283 10.3477 18.0391 C10.4668 20.3832 10.3928 22.6893 10.3477 25.0391 C8.78966 22.1607 7.88493 19.4584 7.09766 16.2891 C5.28064 10.1904 2.67213 5.29359 -2.69141 1.65625 C-8.74355 -1.4019 -15.0787 -2.19538 -21.6641 -0.417969 C-27.9912 2.06622 -31.8115 5.66537 -34.7578 11.7461 C-37.8407 19.6486 -38.0757 27.1022 -38.2773 35.4766 C-38.3156 36.7936 -38.3546 38.1107 -38.3945 39.4277 C-38.4898 42.6313 -38.5741 45.835 -38.6523 49.0391 C-41.1804 44.5742 -40.9976 40.6911 -40.9648 35.6641 C-40.9592 34.7723 -40.9536 33.8805 -40.9478 32.9617 C-40.7452 21.8072 -39.707 10.5262 -31.6523 2.03906 C-22.0982 -5.60056 -10.5452 -6.13269 0 0 Z " fill="#A0511A" transform="translate(186.652,116.961)" stroke="#A0511A" stroke-width="2"/>
<path d="M0 0 C5.67123 4.06943 9.05948 11.283 10.3477 18.0391 C10.4668 20.3832 10.3928 22.6893 10.3477 25.0391 C8.78966 22.1607 7.88493 19.4584 7.09766 16.2891 C5.28064 10.1904 2.67213 5.29359 -2.69141 1.65625 C-8.74355 -1.4019 -15.0787 -2.19538 -21.6641 -0.417969 C-27.9005 2.03062 -31.9158 5.59855 -34.7383 11.668 C-36.4158 16.0194 -37.5539 20.5121 -38.6523 25.0391 C-38.9823 25.0391 -39.3123 25.0391 -39.6523 25.0391 C-40.329 17.4266 -38.0178 9.70463 -33.3398 3.60156 C-24.4589 -5.88241 -10.8155 -6.28988 0 0 Z " fill="#A0511A" transform="translate(113.652,62.9609)" stroke="#A0511A" stroke-width="2"/>
<path d="M0 0 C0.33 0 0.66 0 1 0 C1.14641 3.69452 1.28855 7.38917 1.42725 11.084 C1.47466 12.3327 1.52311 13.5814 1.57275 14.8301 C2.19693 30.5746 2.00541 46.2544 1.5 62 C1.4516 63.5651 1.40342 65.1302 1.35547 66.6953 C1.23954 70.4636 1.12064 74.2318 1 78 C-1.28804 74.3901 -1.27782 71.001 -1.24292 66.8606 C-1.24482 66.1496 -1.24672 65.4386 -1.24867 64.7061 C-1.25237 62.3625 -1.24169 60.0193 -1.23047 57.6758 C-1.22928 56.0472 -1.22882 54.4187 -1.22908 52.7901 C-1.22752 49.3814 -1.21924 45.9729 -1.20581 42.5642 C-1.18878 38.1858 -1.185 33.8074 -1.18576 29.4289 C-1.18548 26.0687 -1.18001 22.7086 -1.17275 19.3484 C-1.16956 17.7332 -1.1676 16.118 -1.16686 14.5028 C-1.1647 12.2522 -1.15597 10.0018 -1.14526 7.75122 C-1.14572 7.0785 -1.14617 6.40577 -1.14664 5.71266 C-1.11448 1.11448 -1.11448 1.11448 0 0 Z " fill="#A0511A" transform="translate(74,88)" stroke="#A0511A" stroke-width="2"/>
<path d="M0 0 C0.66 0 1.32 0 2 0 C2.14695 0.629062 2.29391 1.25812 2.44531 1.90625 C4.32519 9.08002 6.69395 15.4467 13.332 19.3828 C20.0864 22.3502 25.9563 23.1635 33 20.875 C37.5343 19.0127 41.2362 16.0931 45 13 C43.8253 17.5684 41.6442 19.4507 37.8477 21.9297 C31.6396 25.5259 24.7028 26.1205 17.7539 24.4648 C11.0134 22.1331 6.7252 18.3962 3.07031 12.3047 C1.24535 8.37503 0.586006 4.26822 0 0 Z " fill="#A0511A" transform="translate(147,166)" stroke="#A0511A" stroke-width="2"/>
<path d="M0 0 C0.66 0 1.32 0 2 0 C2.14695 0.629062 2.29391 1.25812 2.44531 1.90625 C4.32519 9.08002 6.69395 15.4467 13.332 19.3828 C20.0864 22.3502 25.9563 23.1635 33 20.875 C37.5343 19.0127 41.2362 16.0931 45 13 C43.8253 17.5684 41.6442 19.4507 37.8477 21.9297 C31.6396 25.5259 24.7028 26.1205 17.7539 24.4648 C11.0134 22.1331 6.7252 18.3962 3.07031 12.3047 C1.24535 8.37503 0.586006 4.26822 0 0 Z " fill="#A0511A" transform="translate(74,166)" stroke="#A0511A" stroke-width="2"/>
<path d="M0 0 C0.66 0 1.32 0 2 0 C2.18768 17.3498 1.60738 34.6639 1 52 C0.67 52 0.34 52 0 52 C-0.810986 47.0311 -1.1577 42.2801 -1.125 37.25 C-1.12307 36.5057 -1.12113 35.7615 -1.11914 34.9946 C-1.03507 23.3254 -0.48802 11.658 0 0 Z " fill="#A0511A" transform="translate(123,88)" stroke="#A0511A" stroke-width="2"/>
<path d="M0 0 C0.66 0 1.32 0 2 0 C2.54667 29.9236 2.54667 29.9236 -3 39 C-3.66 39 -4.32 39 -5 39 C-4.52141 37.3957 -4.0421 35.7915 -3.5625 34.1875 C-3.29566 33.2942 -3.02883 32.4009 -2.75391 31.4805 C-2.19612 29.6453 -1.60655 27.8197 -1 26 C-0.850136 24.0094 -0.75172 22.0146 -0.683594 20.0195 C-0.662813 19.4467 -0.642032 18.8738 -0.620621 18.2836 C-0.555421 16.46 -0.496379 14.6363 -0.4375 12.8125 C-0.394287 11.5736 -0.350671 10.3346 -0.306641 9.0957 C-0.19977 6.06395 -0.0984203 3.03204 0 0 Z " fill="#A0511A" transform="translate(123,140)" stroke="#A0511A" stroke-width="2"/>
<path d="M0 0 C0.66 0 1.32 0 2 0 C2.56964 27.886 2.56964 27.886 -3 37 C-3.66 37 -4.32 37 -5 37 C-4.52141 35.3957 -4.0421 33.7915 -3.5625 32.1875 C-3.29566 31.2942 -3.02883 30.4009 -2.75391 29.4805 C-2.19612 27.6453 -1.60655 25.8197 -1 24 C-0.851103 22.1553 -0.75209 20.3064 -0.683594 18.457 C-0.641699 17.3839 -0.599805 16.3107 -0.556641 15.2051 C-0.517324 14.0855 -0.478008 12.966 -0.4375 11.8125 C-0.415908 11.2469 -0.415908 11.2469 -0.306641 8.38477 C-0.200509 5.58997 -0.0984562 2.79508 0 0 Z " fill="#A0511A" transform="translate(196,142)" stroke="#A0511A" stroke-width="2"/>
</svg>
