<svg data-engine="alpha-halo-stack" xmlns="http://www.w3.org/2000/svg" width="256" height="256" viewBox="0 0 256 256"><path d="M0 0 C0.87785 0.02277 1.75574 0.03346 2.63382 0.04341 C6.08068 0.08296 8.08126 0.15258 11.0049 1.94438 C11.4643 2.22568 11.9244 2.50548 12.3869 2.78151 C14.9363 4.30481 17.0345 5.9406 19.0312 8.14406 C19.0312 8.80406 19.0312 9.46406 19.0312 10.1441 C18.8758 10.1065 18.7203 10.0689 18.5602 10.0302 C5.036 6.77147 -4.45238 6.87519 -17.9688 10.1441 C-16.9487 7.81253 -16.0136 5.779 -13.9015 4.24318 C-13.5938 4.019 -13.2972 3.78438 -13.0001 3.5464 C-12.4666 3.12875 -11.9143 2.75287 -11.3436 2.38801 C-11.0876 2.22133 -10.8355 2.0484 -10.5872 1.87031 C-7.38127 -0.3919 -3.76185 -0.09935 0 0 Z " fill="#71F0AF" fill-opacity="0.628" transform="translate(129.969,32.8559)"/><path d="M0 0 C7.20204 -0.63364 13.6476 1.07972 20.5448 3.04034 C24.5448 7.04034 24.5448 7.04034 24.5448 12.0403 C23.8758 11.7516 23.2067 11.4628 22.5175 11.1653 C16.4063 8.67166 10.6023 7.53741 4.0448 7.54034 C3.99974 7.54032 3.99974 7.54032 3.7717 7.54022 C-3.48513 7.54347 -9.77307 9.15634 -16.4552 12.0403 C-16.1252 9.40034 -15.7952 6.76034 -15.4552 4.04034 C-5.15494 0.40092 -5.15494 0.40092 -0.87524 0.07288 C-0.58336 0.05027 -0.29161 0.02585 0 0 Z " fill="#71F0AF" fill-opacity="0.812" transform="translate(126.455,38.9597)"/><path d="M0 0 C1.32 0 2.64 0 4 0 C4 3.63 4 7.26 4 11 C0 7 0 7 -1 1 C-0.67 0.67 -0.34 0.34 0 0 Z " fill="#71F0AF" fill-opacity="0.812" transform="translate(67,136)"/><path d="M0 0 C1.32 0.33 2.64 0.66 4 1 C4 2.65 4 4.3 4 6 C2.68 7.32 1.36 8.64 0 10 C0 6.7 0 3.4 0 0 Z " fill="#71F0AF" fill-opacity="0.812" transform="translate(190,136)"/><path d="M0 0 C1.65 0 3.3 0 5 0 C4.67 0.66 4.34 1.32 4 2 C2.68 1.67 1.36 1.34 0 1 C0 0.67 0 0.34 0 0 Z " fill="#71F0AF" fill-opacity="0.812" transform="translate(128,223)"/><path d="M0 0 C0.28299 -0.0021 0.56597 -0.00489 0.84896 -0.00781 C6.08036 -0.05858 10.7943 0.2841 15.7195 2.2479 C15.8347 2.29363 15.95 2.33936 16.0687 2.38648 C17.1828 2.83258 18.2865 3.3047 19.366 3.82969 C19.5079 3.89853 19.6499 3.96737 19.7961 4.03829 C20.2195 4.3104 20.2195 4.3104 21.2195 5.3104 C21.2195 7.6204 21.2195 9.9304 21.2195 12.3104 C20.5441 12.0333 19.8686 11.7561 19.1727 11.4706 C18.7353 11.2925 18.2978 11.1147 17.8602 10.9374 C17.1707 10.658 16.4815 10.3782 15.7937 10.0948 C10.7983 8.03831 6.51342 7.07861 1.09453 7.0604 C0.95366 7.05937 0.81278 7.05834 0.66764 7.05728 C-4.64328 7.02092 -9.23262 7.92132 -14.1951 9.75392 C-16.0264 10.4261 -17.8793 10.8664 -19.7805 11.3104 C-19.7805 9.3304 -19.7805 7.3504 -19.7805 5.3104 C-17.9444 4.35225 -17.9444 4.35225 -17.132 3.93736 C-16.5868 3.65887 -16.0421 3.37971 -15.5002 3.09483 C-10.424 0.43077 -5.64388 0.03844 0 0 Z " fill="#71F0AF" fill-opacity="0.825" transform="translate(129.78,45.6896)"/><path d="M0 0 C1.32 0 2.64 0 4 0 C4.33 5.61 4.66 11.22 5 17 C3.35 15.35 1.7 13.7 0 12 C0 8.04 0 4.08 0 0 Z " fill="#71F0AF" fill-opacity="0.825" transform="translate(71,136)"/><path d="M0 0 C1.32 0 2.64 0 4 0 C4 3.63 4 7.26 4 11 C2.35 12.65 0.7 14.3 -1 16 C-1.02764 14.6457 -1.05109 13.292 -1.0625 11.9375 C-1.06336 11.8366 -1.06421 11.7357 -1.06509 11.6317 C-1.09479 7.66498 -0.70355 3.90722 0 0 Z " fill="#71F0AF" fill-opacity="0.825" transform="translate(186,136)"/><path d="M0 0 C4.95 0 9.9 0 15 0 C11 6 11 6 10 7 C8.35 7 6.7 7 5 7 C0 1 0 1 0 0 Z " fill="#71F0AF" fill-opacity="0.825" transform="translate(123,216)"/><path d="M0 0 C0.13748 -0.00174 0.27496 -0.00348 0.4166 -0.00527 C5.0817 -0.05701 9.21893 0.66896 13.625 2.1875 C13.7536 2.2312 13.8823 2.27489 14.0148 2.31991 C14.8738 2.61251 15.7253 2.9217 16.5742 3.24219 C16.6815 3.28118 16.7888 3.32017 16.8994 3.36034 C17.003 3.39855 17.1066 3.43676 17.2133 3.47612 C17.3026 3.50864 17.392 3.54116 17.484 3.57467 C19.1429 4.29396 19.4791 4.85406 20.9375 6.3125 C20.9375 8.2925 20.9375 10.2725 20.9375 12.3125 C20.1537 12.0444 19.37 11.7762 18.5625 11.5 C18.0095 11.3178 17.4563 11.1364 16.9023 10.957 C15.8702 10.6225 14.8412 10.2812 13.8169 9.92334 C2.81166 6.08917 -4.67725 7.02784 -15.6714 10.8318 C-17.1314 11.3363 -18.5971 11.824 -20.0625 12.3125 C-20.0625 10.0025 -20.0625 7.6925 -20.0625 5.3125 C-18.017 4.35435 -18.017 4.35435 -17.1074 3.93945 C-16.4985 3.66163 -15.8901 3.38298 -15.2849 3.09692 C-10.3132 0.75118 -5.47422 0.05089 0 0 Z " fill="#71F0AF" fill-opacity="0.856" transform="translate(130.062,51.6875)"/><path d="M0 0 C1.32 0 2.64 0 4 0 C4.4168 2.66779 4.82688 5.33634 5.22527 8.00693 C5.41052 9.24734 5.59858 10.4872 5.7937 11.7261 C5.96407 12.8079 6.12872 13.8903 6.28699 14.974 C6.37073 15.546 6.45699 16.1174 6.55014 16.688 C7.04063 19.7066 7.01716 22.0889 6 25 C2.38821 20.6361 0.08984 17.1495 0.00449 11.2963 C-0.00036 10.976 -0.00635 10.6558 -0.01245 10.3355 C-0.07617 6.88946 -0.06085 3.44592 0 0 Z " fill="#71F0AF" fill-opacity="0.856" transform="translate(75,136)"/><path d="M0 0 C1.32 0 2.64 0 4 0 C3.94738 2.52249 3.86639 5.0422 3.75 7.5625 C3.74579 7.65464 3.74158 7.74677 3.73724 7.8417 C3.31645 16.9589 3.31645 16.9589 0.9375 20.5 C0.89052 20.57 0.84355 20.64 0.79515 20.7122 C-0.34936 22.3965 -1.05568 23.0278 -3 24 C-2.92407 23.1648 -2.92407 23.1648 -2.89736 22.8711 C-2.85067 22.3575 -2.80402 21.844 -2.75743 21.3305 C-2.65902 20.2463 -2.56031 19.1621 -2.46033 18.0781 C-2.40175 17.4427 -2.34339 16.8073 -2.28516 16.1719 C-2.2733 16.0426 -2.26145 15.9133 -2.24924 15.7801 C-2.08144 13.9451 -1.92516 12.1093 -1.77711 10.2726 C-1.71619 9.52239 -1.65308 8.77236 -1.58988 8.02235 C-1.52984 7.30685 -1.47338 6.59118 -1.41949 5.87519 C-1.38484 5.42675 -1.34672 4.97866 -1.30768 4.53059 C-1.29048 4.32508 -1.27467 4.11945 -1.26048 3.91372 C-1.15415 2.38667 -0.75171 1.3425 0 0 Z " fill="#71F0AF" fill-opacity="0.856" transform="translate(182,136)"/><path d="M0 0 C0.66 0.33 1.32 0.66 2 1 C-0.31 3.64 -2.62 6.28 -5 9 C-9.95 9 -14.9 9 -20 9 C-25 4 -25 4 -26 1 C-25.7751 1.03609 -25.7751 1.03609 -24.6367 1.21875 C-20.5842 1.83586 -16.5373 2.15752 -12.4375 2.1875 C-12.379 2.18793 -12.379 2.18793 -12.0827 2.19009 C-7.77949 2.21196 -4.0211 1.5774 0 0 Z " fill="#71F0AF" fill-opacity="0.856" transform="translate(143,207)"/><path d="M0 0 C0 2.31 0 4.62 0 7 C-0.66 6.73188 -1.32 6.46375 -2 6.1875 C-2.73291 5.90552 -2.73291 5.90552 -3.0704 5.77654 C-4.13513 5.36756 -5.16295 4.92796 -6.17783 4.40662 C-13.117 0.88019 -22.9634 0.28676 -30.3614 2.62019 C-32.4814 3.32741 -34.5464 4.22448 -36.5184 5.27695 C-38.0055 6.05854 -39.3274 6.44248 -41 7 C-41 4.69 -41 2.38 -41 0 C-31.9825 -4.94047 -22.7106 -7.99617 0 0 Z " fill="#71F0AF" fill-opacity="0.857" transform="translate(151,64)"/><path d="M0 0 C1.32 0 2.64 0 4 0 C4.03964 0.30478 4.07928 0.60957 4.12012 0.92358 C5.04006 7.90758 6.30685 14.7526 7.93509 21.6016 C7.99939 21.8724 8.06345 22.1433 8.12743 22.4141 C9.28561 27.3166 10.5703 32.1692 12 37 C9.22184 34.5661 6.78687 32.0586 4.9375 28.8438 C4.89513 28.7706 4.85275 28.6976 4.8091 28.6222 C2.75243 25.0614 1.98049 21.4056 1.37574 17.3767 C1.27994 16.7435 1.17413 16.1126 1.06201 15.4822 C0.13763 10.2814 -0.16014 5.2801 0 0 Z " fill="#71F0AF" fill-opacity="0.857" transform="translate(79,136)"/><path d="M0 0 C1.65 0 3.3 0 5 0 C4.80272 2.3231 4.59573 4.64477 4.37313 6.96557 C4.26993 8.04441 4.17041 9.12331 4.08081 10.2034 C3.37999 18.5991 1.8155 26.4493 -3.45093 33.2536 C-3.86229 33.7907 -4.25937 34.3383 -4.6582 34.8848 C-5.42623 35.9331 -6.2087 36.9691 -7 38 C-7.33 37.34 -7.66 36.68 -8 36 C-7.89454 35.7401 -7.78908 35.4802 -7.68042 35.2124 C-5.41529 29.5887 -3.57433 23.9348 -2.3125 18 C-2.28135 17.8535 -2.2502 17.707 -2.2181 17.556 C-0.99112 11.7411 -0.35079 5.92706 0 0 Z " fill="#71F0AF" fill-opacity="0.857" transform="translate(177,136)"/><path d="M0 0 C0.66 0.33 1.32 0.66 2 1 C-5.71713 11.5086 -5.71713 11.5086 -9.25 13.0625 C-9.36225 13.1123 -9.4745 13.162 -9.59015 13.2133 C-10.2529 13.4932 -10.9212 13.7082 -11.6155 13.895 C-12.0399 14.0109 -12.4596 14.1397 -12.8804 14.2681 C-15.4942 15.0295 -18.0617 15.2361 -20.777 15.2484 C-21.0107 15.2495 -21.2444 15.2512 -21.4781 15.2536 C-27.128 15.3091 -31.6141 13.8734 -37 12 C-39.31 8.7 -41.62 5.4 -44 2 C-40.5712 2 -40.5712 2 -39.2734 2.80469 C-39.1238 2.88988 -38.9737 2.97424 -38.8232 3.05785 C-38.5044 3.23517 -38.1872 3.41476 -37.8707 3.5961 C-30.6132 7.71676 -21.9522 9.35374 -13.7628 7.22705 C-10.1047 6.19179 -6.64717 4.20309 -3.33594 2.375 C-3.27941 2.34387 -3.27941 2.34387 -2.99332 2.18634 C-1.86963 1.56258 -0.84581 0.98931 0 0 Z " fill="#71F0AF" fill-opacity="0.857" transform="translate(152,195)"/><path d="M0 0 C0.16448 -0.00174 0.32896 -0.00348 0.49843 -0.00527 C5.12266 -0.05125 9.33477 0.31877 13.625 2.1875 C13.7259 2.2312 13.8268 2.27489 13.9308 2.31991 C16.4182 3.4063 18.6546 4.75257 20.875 6.3125 C20.875 8.6225 20.875 10.9325 20.875 13.3125 C16.3739 11.5915 16.3739 11.5915 14.3477 10.5469 C14.2197 10.4811 14.0917 10.4154 13.9598 10.3476 C13.3386 10.0268 12.721 9.70046 12.1069 9.36597 C8.35652 7.36547 4.42848 7.04131 0.25 7 C0.1855 6.99913 0.1855 6.99913 -0.1409 6.99473 C-5.98581 6.92552 -10.6896 8.57266 -15.8506 11.1746 C-16.3304 11.4157 -16.8118 11.6534 -17.293 11.8916 C-18.2395 12.3603 -19.1819 12.8367 -20.125 13.3125 C-20.125 11.0025 -20.125 8.6925 -20.125 6.3125 C-18.0393 5.10478 -18.0393 5.10478 -17.1211 4.58398 C-16.5031 4.23345 -15.8857 3.8821 -15.272 3.52417 C-10.2187 0.58181 -5.81117 0.04483 0 0 Z " fill="#71F0AF" fill-opacity="0.901" transform="translate(130.125,64.6875)"/><path d="M0 0 C1.65 0 3.3 0 5 0 C5.01458 0.21036 5.01458 0.21036 5.08838 1.2749 C5.71381 9.88908 6.92768 18.167 9.6875 26.375 C9.71932 26.4697 9.75114 26.5644 9.78393 26.6619 C12.0907 33.5026 15.1395 39.6635 19.5564 45.4186 C19.8648 45.8207 20.168 46.2262 20.468 46.6346 C22.6502 49.6018 24.8425 51.9753 27.9667 53.9462 C28.2585 54.1304 28.5491 54.3165 28.8395 54.503 C30.2039 55.375 31.5912 56.2018 33 57 C33.0851 57.0485 33.1702 57.0971 33.2578 57.1471 C40.1002 61.0423 49.1858 61.4684 56.707 59.4141 C66.648 56.5486 74.5905 47.6954 79.4727 38.9375 C85.5541 27.8399 88.198 15.5309 90 0 C91.32 0 92.64 0 94 0 C94.7822 9.86455 92.7286 19.0577 90.1338 28.5105 C90.0086 28.9672 89.8862 29.4246 89.7642 29.8821 C86.8546 40.7143 78.689 52.0493 66.3711 62.4788 C64.8161 63.3693 63.2301 64.1288 61.5605 64.777 C61.0673 64.97 60.5837 65.1807 60.1002 65.3964 C57.0936 66.7373 54.2171 67.5193 50.9375 67.8125 C50.88 67.8178 50.88 67.8178 50.5893 67.8447 C41.4209 68.6715 32.505 65.9895 25.3789 60.1445 C21.0206 56.4966 17.5182 51.943 14.2383 47.3347 C14.0079 47.011 13.7765 46.6881 13.5449 46.3652 C6.24198 36.1419 1.9626 23.3403 0 0 Z " fill="#71F0AF" fill-opacity="0.901" transform="translate(83,136)"/><path d="M0 0 C0 2.64 0 5.28 0 8 C-0.64066 7.59008 -1.28133 7.18016 -1.94141 6.75781 C-11.5498 0.68848 -11.5498 0.68848 -17 0 C-17.1511 -0.01956 -17.3021 -0.03911 -17.4578 -0.05927 C-24.0722 -0.86761 -30.3164 0.95845 -36.125 4.08984 C-36.2022 4.13144 -36.2794 4.17303 -36.3589 4.21588 C-37.9458 5.07895 -39.4618 6.05092 -41 7 C-41 4.69 -41 2.38 -41 0 C-30.5894 -6.92281 -19.5666 -10.045 0 0 Z " fill="#71F0AF" fill-opacity="0.971" transform="translate(151,78)"/><path d="M0 0 C1.32 0 2.64 0 4 0 C4.06469 0.50749 4.12939 1.01498 4.19604 1.53784 C5.77363 13.7272 7.80957 24.909 24.3224 48.175 C30.6111 52.9388 38.2546 55.1995 46.0935 54.1389 C54.4112 52.9368 61.5303 48.5703 66.5667 41.8735 C74.4964 31.1611 77.8902 19.0238 81 0 C82.32 0 83.64 0 85 0 C86.0527 12.2032 82.183 25.9796 68.5974 48.733 C64.1443 53.9789 58.8269 57.232 52.4899 59.7989 C52.0732 59.9681 51.664 60.1508 51.2546 60.3372 C48.6888 61.4308 45.6777 61.2946 42.9375 61.3125 C42.866 61.313 42.866 61.313 42.5042 61.3155 C36.3152 61.3421 31.3435 60.1003 26 57 C25.9046 56.9453 25.8091 56.8906 25.7108 56.8343 C16.3461 51.464 9.86491 42.0336 1.36702 18.8068 C-0.30148 12.6308 -0.23679 6.34973 0 0 Z " fill="#71F0AF" fill-opacity="0.971" transform="translate(88,136)"/><path d="M0 0 C7.66566 -0.9345 15.1852 1.54865 21.3476 6.09442 C21.4399 6.16208 21.5322 6.22974 21.6273 6.29945 C22.7023 7.12777 23.5629 8.08318 24.539 9.05927 C24.539 11.3693 24.539 13.6793 24.539 16.0593 C23.7797 15.5655 23.0205 15.0718 22.2382 14.5632 C21.7508 14.2484 21.2633 13.9337 20.7753 13.6198 C20.004 13.1236 19.2331 12.6267 18.465 12.1254 C17.8444 11.7205 17.2218 11.3189 16.5976 10.9194 C16.3621 10.7679 16.1273 10.6152 15.8933 10.4614 C13.3352 8.78131 10.8134 7.91681 7.75385 7.78583 C7.62713 7.77961 7.50041 7.77339 7.36986 7.76699 C6.40556 7.72141 5.44172 7.69826 4.4765 7.68427 C4.33424 7.68182 4.19197 7.67937 4.0454 7.67685 C-0.4327 7.61077 -4.06485 8.24548 -8.0235 10.3718 C-8.07375 10.3986 -8.07375 10.3986 -8.32808 10.5343 C-11.2429 12.0997 -13.8471 14.0381 -16.461 16.0593 C-16.461 13.4193 -16.461 10.7793 -16.461 8.05927 C-6.43101 0.82676 -6.43101 0.82676 0 0 Z " fill="#71F0AF" fill-opacity="0.966" transform="translate(126.461,76.9407)"/><path d="M0 0 C1.32 0 2.64 0 4 0 C4.07928 0.52207 4.15855 1.04414 4.24023 1.58203 C5.89815 12.2823 8.06567 22.2465 21.6672 42.0699 C22.0322 42.3347 22.4021 42.5918 22.7745 42.8459 C23.003 43.0021 23.2301 43.1602 23.4571 43.3185 C28.8187 47.0311 35.6814 48.9188 42.1929 47.832 C50.3724 46.3419 57.2338 40.8568 61.907 34.1867 C68.9054 24.0132 70.9153 12.0154 72 0 C73.65 0 75.3 0 77 0 C75.9461 12.0212 74.3366 22.9567 65 40 C64.9478 40.0831 64.8957 40.1662 64.8419 40.2519 C61.0119 46.3492 53.1892 52.7543 46.0908 54.5405 C45.068 54.7678 44.041 54.8912 43 55 C42.8203 55.0209 42.6406 55.0419 42.4609 55.0632 C33.995 56.0479 26.5318 53.9865 19.7873 48.7271 C11.2231 41.9082 5.77372 31.8006 0.03508 8.3326 C-0.12114 6.85159 -0.10897 5.36616 -0.06866 3.87952 C-0.05794 3.43666 -0.05371 2.99373 -0.04883 2.55078 C-0.03903 1.70017 -0.01943 0.85065 0 0 Z " fill="#71F0AF" fill-opacity="0.966" transform="translate(92,136)"/><path d="M0 0 C0.21628 0.1577 0.43166 0.31652 0.64665 0.47596 C0.72078 0.53086 0.79491 0.58576 0.87129 0.64232 C1.40665 1.04041 1.93662 1.44508 2.46305 1.85487 C2.53018 1.90709 2.59731 1.95931 2.66647 2.01312 C4.05545 3.10155 5.33176 4.29257 6.64665 5.47596 C6.64665 8.11596 6.64665 10.756 6.64665 13.476 C6.24575 13.0892 5.84485 12.7025 5.4318 12.3041 C-0.44058 6.78062 -7.06654 2.76621 -15.3695 2.9909 C-23.1664 3.29667 -28.9237 8.38568 -34.3533 13.476 C-34.3533 10.836 -34.3533 8.19596 -34.3533 5.47596 C-25.4545 -2.8819 -12.8392 -8.17046 0 0 Z " fill="#71F0AF" fill-opacity="0.963" transform="translate(144.353,87.524)"/><path d="M0 0 C0.825 0.165 0.825 0.165 5 1 C5.08637 1.78762 5.17273 2.57523 5.26172 3.38672 C6.6347 14.8916 9.7788 28.5283 19.2715 36.22 C24.6066 40.4015 31.0263 42.1262 37.7411 41.368 C44.6461 40.5009 49.726 36.2521 53.9383 30.91 C60.7748 22.0646 62.353 10.7395 64 0 C65.32 0 66.64 0 68 0 C68.8038 13.4562 65 26.8924 55.1875 38.9375 C50.1605 44.5301 43.7611 48.5815 36.1172 49.073 C28.7501 49.4553 22.5625 47.0995 17.0717 42.2277 C7.80775 33.871 2.96539 22.2136 0.75 10.125 C0.72911 10.0124 0.70822 9.89977 0.68669 9.78374 C0.07718 6.48065 -0.07237 3.36536 0 0 Z " fill="#71F0AF" fill-opacity="0.963" transform="translate(96,136)"/><path d="M0 0 C0.84123 0.61636 1.61675 1.30994 2.38133 2.01775 C2.45874 2.08939 2.53614 2.16103 2.61589 2.23483 C4.27275 3.78736 5.74131 5.5087 7.26414 7.19353 C7.26414 10.4935 7.26414 13.7935 7.26414 17.1935 C4.83828 14.2825 2.71946 11.681 1.26414 8.19353 C0.2799 7.67092 -0.71421 7.17233 -1.71799 6.68853 C-2.3153 6.40025 -2.90902 6.10639 -3.49953 5.80437 C-8.56725 3.22846 -13.1357 1.9599 -18.6774 3.75278 C-24.0044 5.54138 -27.5938 8.44882 -30.8242 13.0019 C-31.7053 14.2296 -32.6165 15.0742 -33.7359 16.1935 C-33.7359 6.95141 -33.7359 6.95141 -29.3461 2.54316 C-21.3783 -5.38604 -9.40039 -6.56926 0 0 Z " fill="#71F0AF" fill-opacity="0.957" transform="translate(143.736,93.8065)"/><path d="M0 0 C1.65 0 3.3 0 5 0 C5.05946 0.39155 5.11892 0.78311 5.18018 1.18652 C6.83543 11.8673 9.11593 24.1932 18.4683 31.325 C19.2874 31.9237 20.1389 32.4641 21 33 C21.2172 33.1423 21.4341 33.2848 21.6509 33.4277 C25.483 35.8877 30.6447 35.1903 35 35 C42.8358 31.2932 47.2396 27.179 50.8651 19.2915 C50.9941 19.0127 51.1254 18.735 51.2579 18.4577 C54.048 12.6155 55.0214 6.35277 56 0 C57.32 0 58.64 0 60 0 C61.176 10.519 57.2628 22.8818 50.7065 31.1544 C49.1227 33.1022 47.3014 34.8248 45.4375 36.5 C45.3449 36.584 45.2523 36.6679 45.157 36.7544 C40.9386 40.5707 36.5261 42.4605 30.8125 42.4375 C30.6962 42.4375 30.5799 42.4376 30.46 42.4376 C23.8687 42.4214 18.0413 40.102 13.3175 35.4546 C3.86454 25.9105 1.24301 12.8639 0 0 Z " fill="#71F0AF" fill-opacity="0.957" transform="translate(100,136)"/><path d="M0 0 C4.04051 2.83506 6.6361 7.04509 9.21346 11.1498 C9.21346 15.4398 9.21346 19.7298 9.21346 24.1498 C6.99812 19.7191 6.99812 19.7191 6.3194 18.0576 C3.6886 11.6974 0.24048 6.74927 -6.252 3.94469 C-10.0628 2.40505 -14.1588 2.99477 -17.8676 4.55138 C-24.5042 7.45693 -27.7216 14.3216 -30.2283 20.6961 C-30.4169 21.1797 -30.6028 21.6643 -30.7865 22.1498 C-31.1165 22.1498 -31.4465 22.1498 -31.7865 22.1498 C-31.7865 9.77994 -31.7865 9.77994 -27.4311 4.18884 C-27.3626 4.10086 -27.294 4.01289 -27.2234 3.92225 C-20.2032 -5.04246 -9.21656 -6.30226 0 0 Z " fill="#71F0AF" fill-opacity="0.947" transform="translate(141.787,99.8502)"/><path d="M0 0 C1.32 0 2.64 0 4 0 C4.06993 0.35191 4.13986 0.70383 4.21191 1.06641 C6.39813 11.955 8.44812 20.5545 18 27 C18.058 27.0399 18.058 27.0399 18.3516 27.2415 C21.4428 29.3382 24.9358 29.2931 28.5033 28.6286 C33.9133 27.5578 37.4855 24.0468 40.5043 19.6387 C44.3212 13.9322 45.5451 6.60201 47 0 C48.32 0 49.64 0 51 0 C50.7671 10.7548 47.6864 22.6143 39.679 30.3809 C35.767 34.0618 30.5943 36.6456 25.1552 36.5579 C19.1906 36.3754 14.0358 33.4848 9.98043 29.2293 C6.84035 25.8661 4.86491 22.0433 3.125 17.8125 C3.0727 17.6858 3.02041 17.559 2.96653 17.4284 C1.05838 12.7787 -0.20958 8.2409 -0.0625 3.1875 C-0.05745 2.87305 -0.0529 2.5586 -0.04883 2.24414 C-0.03901 1.4957 -0.01941 0.74849 0 0 Z " fill="#71F0AF" fill-opacity="0.947" transform="translate(105,136)"/><path d="M0 0 C6.01128 4.02794 9.4898 10.9052 10.8846 17.8281 C12.9792 28.5908 12.7734 39.4434 6.01892 51.9743 C4.0031 54.9191 1.2132 57.1105 -1.74915 59.0378 C-1.8641 59.1154 -1.97905 59.1929 -2.09748 59.2729 C-5.27282 61.4115 -8.86118 61.3336 -12.511 60.6223 C-15.6192 59.9797 -18.0373 58.4713 -20.382 56.366 C-20.6301 56.1442 -20.8789 55.9255 -21.132 55.7096 C-27.1378 50.5815 -30.1924 43.0092 -30.822 35.2148 C-31.6305 24.2707 -30.4215 12.9143 -23.0964 4.2474 C-17.2279 -2.53187 -7.92178 -5.0986 0 0 Z M-20.3776 8.63889 C-25.1015 13.68 -27.2095 22.8833 -27.0504 29.6423 C-27.0054 30.6949 -26.9033 31.7376 -26.7786 32.7835 C-26.7484 33.0439 -26.7208 33.3045 -26.6938 33.5652 C-25.995 40.2303 -23.2506 47.2798 -17.983 51.719 C-13.8469 54.907 -10.5795 54.0378 -4.74915 54.0378 C1.43284 49.5063 6.04026 44.881 7.25085 37.0378 C8.3875 28.7448 8.5624 18.3246 3.4404 11.2853 C1.59709 8.87831 -0.87222 6.91211 -3.39972 5.26672 C-3.69273 5.07477 -3.97595 4.87492 -4.2594 4.6694 C-5.78715 3.64924 -7.83568 3.92611 -9.59497 3.96915 C-10.0643 3.97951 -10.5337 3.98397 -11.0031 3.98898 C-14.6837 4.03167 -17.7613 6.03535 -20.3776 8.63889 Z " fill="#71F0AF" fill-opacity="0.952" transform="translate(139.749,104.962)"/><path d="M0 0 C4.17103 2.5595 7.47979 4.76284 10 9 C10.0752 9.12208 10.1504 9.24416 10.2278 9.36993 C14.4938 16.3657 14.392 27.4812 12.5594 35.3185 C10.8726 42.0196 6.40218 46.0401 1 50 C-9.84735 50 -9.84735 50 -14 46 C-18.3765 41.4559 -20.2201 35.3632 -20.967 29.2606 C-21.0189 28.8508 -21.0789 28.4421 -21.1372 28.0332 C-21.7574 23.3825 -20.6878 19.1812 -19.3762 14.7426 C-19.2525 14.3209 -19.1321 13.8983 -19.0124 13.4755 C-17.7063 8.91881 -15.4739 4.20769 -11.2223 1.68115 C-10.9022 1.50887 -10.5758 1.34865 -10.25 1.1875 C-8 0 -8 0 0 0 Z M-12 10 C-16.1329 14.2586 -16.5473 20.3005 -16.4947 25.9237 C-16.3979 31.4986 -15.3498 36.6236 -11.3198 40.71 C-8.00843 43.8867 -6.20168 44 -1 44 C4.50526 40.3298 7.66787 36.9778 9.07969 30.6424 C9.44103 28.7996 9.54971 26.9371 9.5625 25.0625 C9.56336 24.937 9.56421 24.8116 9.56509 24.6823 C9.57039 18.6856 7.09403 13.9947 4 9 C-2.36703 5.17978 -7.09621 5.23633 -12 10 Z " fill="#71F0AF" fill-opacity="1" transform="translate(134,109)"/><path d="M0 0 C5.05418 4.50778 7.96533 8.69637 8.36803 15.5539 C8.70119 22.2041 7.25442 27.2466 4 33 C-2 37 -2 37 -8 37 C-12.1977 34.0521 -15.9206 30.9667 -16.8972 25.6489 C-18.0397 18.8087 -18.3478 10.2469 -14.141 4.34707 C-10.5558 -0.47354 -6.07922 -0.86846 0 0 Z M-12 10 C-13.1648 13.4944 -13.1648 13.4944 -13.2031 15.2695 C-13.2099 15.4733 -13.2168 15.6771 -13.2237 15.8809 C-13.2392 16.4154 -13.2458 16.9495 -13.2484 17.4842 C-13.2495 17.7042 -13.2512 17.9242 -13.2536 18.1442 C-13.2986 22.4283 -12.4487 25.4144 -10 29 C-6 31 -6 31 -1 30 C-0.44415 29.3459 0.10789 28.6905 0.65405 28.0286 C0.83965 27.8052 1.02678 27.5832 1.21558 27.3625 C3.53898 24.6426 4.22652 21.9961 4.24838 18.4433 C4.24947 18.2715 4.25121 18.0996 4.25357 17.9278 C4.3068 13.9504 3.09542 11.4924 1 8 C-5.16279 4.30233 -5.16279 4.30233 -12 10 Z " fill="#71F0AF" fill-opacity="1" transform="translate(135,116)"/><path d="M0 0 C6 2 6 2 7.4375 3.8125 C7.58502 3.99402 7.73253 4.17553 7.88452 4.36255 C9.84995 6.85933 10.2402 9.70775 10.25 12.8125 C10.2506 12.8986 10.2512 12.9848 10.2518 13.0736 C10.2698 16.8266 9.39794 20.4584 6.73712 23.2786 C5.59979 24.3868 4.36433 25.1532 3 26 C-2.05024 24.99 -2.05024 24.99 -3.65405 23.4558 C-3.8394 23.2804 -4.02653 23.1068 -4.21558 22.9353 C-6.02376 21.2911 -6.92833 19.6016 -7.06174 17.1346 C-7.11595 15.8092 -7.09486 14.4841 -7.06866 13.1584 C-7.05827 12.575 -7.05383 11.9916 -7.04883 11.4082 C-7.01743 8.03973 -6.1656 5.2727 -3.73712 2.72412 C-2.59995 1.65565 -1.30729 0.8565 0 0 Z M-1 7 C-3 10 -3 10 -3 16 C-2.67 16.495 -2.67 16.495 -1 19 C0.65 19 2.3 19 4 19 C4.66 16.69 5.32 14.38 6 12 C5.01 10.35 4.02 8.7 3 7 C1.68 7 0.36 7 -1 7 Z " fill="#71F0AF" fill-opacity="1" transform="translate(129,121)"/><path d="M0 0 C1.65 0.33 3.3 0.66 5 1 C7 7 7 7 5 12 C3.35 12 1.7 12 0 12 C-2 9 -2 9 -2 3 C-1.34 2.01 -0.68 1.02 0 0 Z " fill="#71F0AF" fill-opacity="1" transform="translate(128,128)"/></svg>
